<svg height="207.605" viewBox="0 0 189.373 207.605" width="189.373" xmlns="http://www.w3.org/2000/svg"><path d="m80.025 6.349c-2.658-5.872-12.491-6.977-23.189-2.98s-17.872 11.143-15.553 17.456c.677 1.841 2.672 6.181 2.672 6.181l38.745-14.476s-1.782-4.207-2.675-6.181z" fill="#ffe993"/><path d="m43.955 28.006a1 1 0 0 1 -.909-.582c-.082-.179-2.019-4.4-2.7-6.254-2.418-6.577 4.22-14.282 16.14-18.737 11.515-4.3 21.57-2.862 24.45 3.5.888 1.963 2.664 6.161 2.682 6.2a1 1 0 0 1 -.571 1.326l-38.742 14.484a1 1 0 0 1 -.35.063zm24.851-26.021a33.872 33.872 0 0 0 -11.62 2.321c-10.651 3.98-16.945 10.783-14.964 16.175.476 1.3 1.646 3.913 2.256 5.262l36.89-13.785c-.579-1.359-1.636-3.832-2.254-5.2-1.421-3.136-5.261-4.773-10.308-4.773z" fill="#112c41"/><ellipse cx="63.326" cy="19.768" fill="#ffd169" rx="20.679" ry="9.325" transform="matrix(.93674552 -.3500112 .3500112 .93674552 -2.913 23.416)"/><path d="m53.5 32.085c-.556 0-1.1-.017-1.632-.053-4.679-.309-7.814-1.973-8.827-4.686-2.021-5.408 5.3-12.974 16.677-17.224s21.867-3.342 23.889 2.068-5.307 12.974-16.677 17.223a39.437 39.437 0 0 1 -13.43 2.672zm19.742-22.693a37.891 37.891 0 0 0 -12.842 2.551c-10 3.739-17.12 10.482-15.535 14.723.72 1.926 3.32 3.175 7.136 3.427a35.541 35.541 0 0 0 14.248-2.5c10.007-3.738 17.122-10.481 15.537-14.724-.859-2.299-4.132-3.477-8.544-3.477z" fill="#112c41"/><path d="m75.866 24.439c-2.108-5.639-7.636-7.439-12.966-5.451s-8.44 7.018-6.332 12.661l3.066 7.723 19.3-7.21z" fill="#ffe993"/><path d="m59.637 40.371a1 1 0 0 1 -.93-.631l-3.066-7.722c-2.2-5.89.644-11.625 6.911-13.967a11.766 11.766 0 0 1 8.4-.132 10.181 10.181 0 0 1 5.843 6.16l3.063 7.713a1 1 0 0 1 -.579 1.306l-19.3 7.21a1 1 0 0 1 -.342.063zm7.432-21.165a10.92 10.92 0 0 0 -3.817.718c-5.164 1.93-7.527 6.607-5.745 11.375l2.7 6.793 17.422-6.51-2.689-6.774-.007-.02a8.244 8.244 0 0 0 -4.7-5.007 8.649 8.649 0 0 0 -3.164-.575z" fill="#112c41"/><path d="m136.175 194.542c-.49.26-.97.52-1.47.77q-2.685 1.41-5.49 2.64c-.92.42-1.86.82-2.8 1.21-47.77 19.58-101.23-.49-119.4-44.84-8.81-21.49-7.71-44.74 1.2-65.22a91.537 91.537 0 0 1 5.19-10.15 97.608 97.608 0 0 1 47.2-40.36 99.316 99.316 0 0 1 37.15-7.5 85.154 85.154 0 1 0 34.52 164.99.037.037 0 0 0 .03-.01q1.965-.72 3.87-1.53z" fill="#ffe993"/><path d="m88.7 207.631a94.94 94.94 0 0 1 -33.416-6.031c-22.8-8.563-40.253-25.225-49.141-46.919-8.6-20.976-8.17-44.4 1.208-65.953a92.74 92.74 0 0 1 5.249-10.257 100.586 100.586 0 0 1 85.15-48.321.942.942 0 0 1 .057 1.882 84.288 84.288 0 0 0 -78.995 84.049 83.427 83.427 0 0 0 7.526 34.84 84.336 84.336 0 0 0 105.614 44.279l.042-.014c1.268-.464 2.551-.972 3.813-1.507a.942.942 0 0 1 .809 1.7l-.307.164c-.392.208-.781.415-1.183.616-1.786.939-3.653 1.836-5.533 2.661-.916.418-1.867.823-2.817 1.216a100.4 100.4 0 0 1 -38.076 7.595zm-15.832-172.209a100.6 100.6 0 0 0 -11.9 4.042 97.272 97.272 0 0 0 -46.752 39.967 90.972 90.972 0 0 0 -5.137 10.047c-9.173 21.084-9.6 43.985-1.192 64.486 8.687 21.2 25.754 37.494 48.059 45.869a95.2 95.2 0 0 0 64.4.6 86.253 86.253 0 0 1 -95.718-48.733 85.3 85.3 0 0 1 -7.695-35.621 86.265 86.265 0 0 1 55.935-80.657z" fill="#112c41"/><path d="m129.215 197.952c-.92.42-1.86.82-2.8 1.21-47.77 19.58-101.23-.49-119.4-44.84-8.81-21.49-7.71-44.74 1.2-65.22a89.639 89.639 0 0 0 11.2 69c18.83 29.92 54.7 47.96 93.25 43.29a98.127 98.127 0 0 0 16.55-3.44z" fill="#ffd169"/><path d="m88.7 207.631a94.94 94.94 0 0 1 -33.416-6.031c-22.8-8.563-40.253-25.225-49.141-46.919-8.6-20.976-8.17-44.4 1.208-65.953a92.74 92.74 0 0 1 5.249-10.257 100.586 100.586 0 0 1 85.15-48.321.942.942 0 0 1 .057 1.882 84.288 84.288 0 0 0 -78.995 84.049 83.427 83.427 0 0 0 7.526 34.84 84.336 84.336 0 0 0 105.614 44.279l.042-.014c1.268-.464 2.551-.972 3.813-1.507a.942.942 0 0 1 .809 1.7l-.307.164c-.392.208-.781.415-1.183.616-1.786.939-3.653 1.836-5.533 2.661-.916.418-1.867.823-2.817 1.216a100.4 100.4 0 0 1 -38.076 7.595zm-15.832-172.209a100.6 100.6 0 0 0 -11.9 4.042 97.272 97.272 0 0 0 -46.752 39.967 90.972 90.972 0 0 0 -5.137 10.047c-9.173 21.084-9.6 43.985-1.192 64.486 8.687 21.2 25.754 37.494 48.059 45.869a95.2 95.2 0 0 0 64.4.6 86.253 86.253 0 0 1 -95.718-48.733 85.3 85.3 0 0 1 -7.695-35.621 86.265 86.265 0 0 1 55.935-80.657z" fill="#112c41"/><ellipse cx="102.685" cy="116.15" fill="#fff" rx="85.739" ry="85.928"/><path d="m102.685 203.026a86.876 86.876 0 1 1 86.687-86.876 86.881 86.881 0 0 1 -86.687 86.876zm0-171.856a84.98 84.98 0 1 0 84.791 84.98 84.982 84.982 0 0 0 -84.791-84.98z" fill="#112c41"/><path d="m102.072 119.964a3.931 3.931 0 0 1 -.905-7.609l43.267-15.506a3.93 3.93 0 0 1 2.652 7.4l-43.267 15.506a3.908 3.908 0 0 1 -1.747.209z" fill="#b2b0f7"/><path d="m102.5 120.774a4.585 4.585 0 0 1 -.509-.029 4.717 4.717 0 0 1 -1.086-9.131l43.266-15.505a4.717 4.717 0 1 1 3.183 8.88l-43.27 15.511a4.665 4.665 0 0 1 -1.584.274zm-.34-1.591a3.135 3.135 0 0 0 1.395-.167l43.268-15.507a3.145 3.145 0 0 0 .281-5.8 3.113 3.113 0 0 0 -2.4-.116l-43.272 15.507a3.146 3.146 0 0 0 .726 6.088z" fill="#112c41"/><path d="m102.072 119.964a3.93 3.93 0 0 1 -3.3-2.651l-17.972-53.225a3.931 3.931 0 0 1 7.448-2.516l17.969 53.228a3.933 3.933 0 0 1 -4.145 5.167z" fill="#b2b0f7"/><path d="m102.5 120.774a4.585 4.585 0 0 1 -.509-.029 4.733 4.733 0 0 1 -3.964-3.181l-17.976-53.224a4.717 4.717 0 1 1 8.937-3.019l17.974 53.224a4.724 4.724 0 0 1 -4.465 6.229zm-17.976-61.09a3.148 3.148 0 0 0 -2.984 4.153l17.974 53.224a3.157 3.157 0 0 0 2.644 2.122 3.146 3.146 0 0 0 3.314-4.135l-17.972-53.224a3.146 3.146 0 0 0 -2.975-2.14z" fill="#112c41"/></svg>